<?xml version="1.0" encoding="UTF-8"?>
<!DOCTYPE svg PUBLIC "-//W3C//DTD SVG 1.1//EN" "http://www.w3.org/Graphics/SVG/1.1/DTD/svg11.dtd">
<!-- Creator: CorelDRAW X7 -->
<svg xmlns="http://www.w3.org/2000/svg" xml:space="preserve" width="210mm" height="210mm" version="1.1" style="shape-rendering:geometricPrecision; text-rendering:geometricPrecision; image-rendering:optimizeQuality; fill-rule:evenodd; clip-rule:evenodd"
viewBox="0 0 21004 21004"
 xmlns:xlink="http://www.w3.org/1999/xlink">
 <defs>
  <style type="text/css">
   <![CDATA[
    .str0 {stroke:#DA003B;stroke-width:385.64}
    .fil1 {fill:none}
    .fil0 {fill:#DA003B}
   ]]>
  </style>
 </defs>
 <g id="Слой_x0020_1">
  <metadata id="CorelCorpID_0Corel-Layer"/>
  <g>
   <path class="fil0" d="M10498 762c5377,0 9736,4359 9736,9736 0,5377 -4359,9736 -9736,9736 -5377,0 -9736,-4359 -9736,-9736l0 0c6,-5374 4362,-9730 9736,-9736l0 0zm0 -382c-5588,0 -10118,4530 -10118,10118 0,5588 4530,10118 10118,10118 5588,0 10118,-4530 10118,-10118l0 0c3,-5586 -4524,-10116 -10110,-10118 -3,0 -5,0 -8,0z"/>
  </g>
  <polygon class="fil1 str0" points="20811,20811 193,20811 193,13938 193,193 20811,193 "/>
  <polyline class="fil1 str0" points="10498,193 10498,20811 10498,10498 193,10498 20811,10498 "/>
  <polyline class="fil1 str0" points="20811,193 10498,10498 193,193 "/>
  <polyline class="fil1 str0" points="193,20811 3075,17927 10498,10498 20811,20811 "/>
  <g>
   <path class="fil0" d="M5344 762c2530,0 4581,2051 4581,4582 0,2530 -2051,4581 -4581,4581 -2531,0 -4582,-2051 -4582,-4581 0,-2531 2051,-4582 4582,-4582l0 0zm0 -382c-2742,0 -4964,2222 -4964,4964 0,2741 2222,4963 4964,4963 2741,0 4963,-2222 4963,-4963 0,-2742 -2222,-4964 -4963,-4964l0 0z"/>
  </g>
  <g>
   <path class="fil0" d="M2098 514c875,0 1585,709 1585,1584 0,875 -710,1585 -1585,1585 -875,0 -1584,-710 -1584,-1585l0 0c0,-875 709,-1584 1584,-1584l0 0zm0 -382c-1086,0 -1966,880 -1966,1966 0,1086 880,1966 1966,1966 1086,0 1966,-880 1966,-1966l0 0c-1,-1085 -881,-1964 -1966,-1966z"/>
  </g>
 </g>
</svg>
